<svg width="512" height="512" viewBox="0 0 512 512" fill="none" xmlns="http://www.w3.org/2000/svg">
<rect width="512" height="512" fill="#112347"/>
<path d="M158.8 202C166.383 202 173.832 200.004 180.399 196.212C186.966 192.42 192.42 186.967 196.211 180.4H353.2C358.929 180.4 364.423 178.124 368.473 174.074C372.524 170.023 374.8 164.529 374.8 158.8C374.8 153.071 372.524 147.577 368.473 143.526C364.423 139.476 358.929 137.2 353.2 137.2H196.211C192.419 130.633 186.966 125.18 180.399 121.389C173.832 117.598 166.383 115.602 158.8 115.602C151.217 115.602 143.768 117.598 137.201 121.389C130.634 125.18 125.18 130.633 121.389 137.2H158.8V180.4H121.389C125.18 186.967 130.633 192.42 137.2 196.212C143.768 200.004 151.217 202 158.8 202ZM140.353 296.046C138.335 298.07 137.2 300.812 137.2 303.671V385.6C137.2 388.464 138.338 391.211 140.363 393.237C142.389 395.262 145.136 396.4 148 396.4H180.4C183.264 396.4 186.011 395.262 188.037 393.237C190.062 391.211 191.2 388.464 191.2 385.6V374.8H320.8V385.6C320.8 388.464 321.938 391.211 323.963 393.237C325.989 395.262 328.736 396.4 331.6 396.4H364C366.864 396.4 369.611 395.262 371.637 393.237C373.662 391.211 374.8 388.464 374.8 385.6V303.671C374.799 300.812 373.665 298.07 371.646 296.046L353.2 277.6L323.953 228.849C322.992 227.245 321.631 225.918 320.003 224.997C318.375 224.077 316.536 223.596 314.665 223.6H197.334C195.468 223.6 193.633 224.083 192.009 225.003C190.385 225.923 189.027 227.248 188.068 228.849L158.8 277.6L140.353 296.046ZM334.494 288.4H177.505L203.425 245.2H308.574L334.494 288.4ZM212.8 327.885V335.92C212.8 337.639 212.117 339.287 210.902 340.502C209.687 341.717 208.038 342.4 206.32 342.4H165.28C163.561 342.4 161.913 341.717 160.698 340.502C159.483 339.287 158.8 337.639 158.8 335.92V317.906C158.8 316.947 159.014 316 159.424 315.134C159.835 314.267 160.432 313.503 161.174 312.895C161.916 312.288 162.783 311.852 163.714 311.621C164.644 311.389 165.614 311.367 166.554 311.555L205.866 319.418C207.822 319.812 209.581 320.87 210.845 322.413C212.108 323.957 212.799 325.89 212.8 327.885ZM353.2 320.541V335.92C353.2 337.639 352.517 339.287 351.302 340.502C350.087 341.717 348.439 342.4 346.72 342.4H305.68C303.961 342.4 302.313 341.717 301.098 340.502C299.883 339.287 299.2 337.639 299.2 335.92V326.114C299.201 324.617 299.72 323.166 300.668 322.009C301.617 320.851 302.938 320.058 304.406 319.763L342.854 312.074C344.107 311.821 345.402 311.85 346.643 312.158C347.885 312.467 349.042 313.047 350.032 313.857C351.022 314.667 351.819 315.687 352.367 316.843C352.915 317.999 353.2 319.262 353.2 320.541Z" fill="white"/>
</svg>
