<svg width="24" height="24" viewBox="0 0 24 24" fill="none" xmlns="http://www.w3.org/2000/svg">
<path d="M4.5 7C4.5 6.30964 4.97969 5.75 5.57143 5.75H18.4286C19.0203 5.75 19.5 6.30964 19.5 7C19.5 7.69036 19.0203 8.25 18.4286 8.25H5.57143C4.9797 8.25 4.5 7.69036 4.5 7Z" fill="#112347"/>
<path d="M4.5 12C4.5 11.3096 4.97969 10.75 5.57143 10.75H18.4286C19.0203 10.75 19.5 11.3096 19.5 12C19.5 12.6904 19.0203 13.25 18.4286 13.25H5.57143C4.9797 13.25 4.5 12.6904 4.5 12Z" fill="#112347"/>
<path d="M4.5 17C4.5 16.3096 4.97969 15.75 5.57143 15.75H18.4286C19.0203 15.75 19.5 16.3096 19.5 17C19.5 17.6904 19.0203 18.25 18.4286 18.25H5.57143C4.9797 18.25 4.5 17.6904 4.5 17Z" fill="#112347"/>
</svg>
