<svg width="20" height="20" viewBox="0 0 20 20" fill="none" xmlns="http://www.w3.org/2000/svg">
<g clip-path="url(#clip0_1_1218)">
<path d="M17.1989 10.8189C17.433 10.5846 17.5645 10.2669 17.5645 9.93562C17.5645 9.60436 17.433 9.28666 17.1989 9.05228L12.4856 4.33645C12.2511 4.10195 11.933 3.97021 11.6014 3.97021C11.2698 3.97021 10.9517 4.10195 10.7172 4.33645C10.4827 4.57094 10.351 4.88899 10.351 5.22062C10.351 5.55224 10.4827 5.87029 10.7172 6.10478L13.2972 8.68562H3.68472C3.3532 8.68562 3.03526 8.81731 2.80084 9.05173C2.56642 9.28615 2.43472 9.60409 2.43472 9.93562C2.43472 10.2671 2.56642 10.5851 2.80084 10.8195C3.03526 11.0539 3.3532 11.1856 3.68472 11.1856H13.2972L10.7172 13.7656C10.6011 13.8817 10.509 14.0196 10.4462 14.1713C10.3833 14.323 10.351 14.4856 10.351 14.6498C10.351 14.814 10.3833 14.9766 10.4462 15.1283C10.509 15.28 10.6011 15.4178 10.7172 15.5339C10.8333 15.6501 10.9712 15.7422 11.1229 15.805C11.2746 15.8678 11.4372 15.9002 11.6014 15.9002C11.7656 15.9002 11.9282 15.8678 12.0799 15.805C12.2316 15.7422 12.3694 15.6501 12.4856 15.5339L17.1989 10.8189Z" fill="white"/>
</g>
<defs>
<clipPath id="clip0_1_1218">
<rect width="20" height="20" fill="white"/>
</clipPath>
</defs>
</svg>
