<svg width="14" height="14" viewBox="0 0 14 14" fill="none" xmlns="http://www.w3.org/2000/svg">
<path d="M5.17609 4.62636C5.28888 4.73911 5.44183 4.80245 5.60131 4.80245C5.76079 4.80245 5.91374 4.73911 6.02652 4.62636L9.00363 1.64925L11.9807 4.62636C12.0942 4.73591 12.2461 4.79653 12.4038 4.79516C12.5615 4.79379 12.7123 4.73054 12.8238 4.61903C12.9354 4.50752 12.9986 4.35667 13 4.19898C13.0013 4.04128 12.9407 3.88936 12.8312 3.77593L9.42885 0.373602C9.31606 0.26085 9.16311 0.19751 9.00363 0.19751C8.84415 0.19751 8.6912 0.26085 8.57842 0.373602L5.17609 3.77593C5.06334 3.88871 5 4.04166 5 4.20114C5 4.36062 5.06334 4.51357 5.17609 4.62636Z" fill="#999999"/>
<path d="M12.8239 9.37364C12.7111 9.26089 12.5582 9.19755 12.3987 9.19755C12.2392 9.19755 12.0863 9.26089 11.9735 9.37364L8.99637 12.3508L6.01926 9.37364C5.90583 9.26409 5.7539 9.20347 5.59621 9.20484C5.43851 9.20621 5.28767 9.26946 5.17616 9.38097C5.06464 9.49248 5.00139 9.64333 5.00002 9.80102C4.99865 9.95872 5.05927 10.1106 5.16883 10.2241L8.57115 13.6264C8.68394 13.7391 8.83689 13.8025 8.99637 13.8025C9.15585 13.8025 9.3088 13.7391 9.42158 13.6264L12.8239 10.2241C12.9367 10.1113 13 9.95834 13 9.79886C13 9.63938 12.9367 9.48643 12.8239 9.37364Z" fill="#999999"/>
</svg>
