<svg width="20" height="20" viewBox="0 0 20 20" fill="none" xmlns="http://www.w3.org/2000/svg">
<g clip-path="url(#clip0_7_610)">
<path d="M2.80029 9.05141C2.56621 9.28579 2.43472 9.6035 2.43472 9.93475C2.43472 10.266 2.56621 10.5837 2.80029 10.8181L7.51362 15.5339C7.74812 15.7684 8.06616 15.9001 8.39779 15.9001C8.72942 15.9001 9.04746 15.7684 9.28196 15.5339C9.51645 15.2994 9.64819 14.9814 9.64819 14.6497C9.64819 14.3181 9.51645 14.0001 9.28196 13.7656L6.70196 11.1847H16.3145C16.646 11.1847 16.9639 11.0531 17.1983 10.8186C17.4328 10.5842 17.5645 10.2663 17.5645 9.93475C17.5645 9.60323 17.4328 9.28528 17.1983 9.05086C16.9639 8.81644 16.646 8.68475 16.3145 8.68475H6.70196L9.28196 6.10475C9.39807 5.98864 9.49017 5.85079 9.55301 5.69909C9.61585 5.54738 9.64819 5.38478 9.64819 5.22058C9.64819 5.05637 9.61585 4.89378 9.55301 4.74207C9.49017 4.59037 9.39807 4.45252 9.28196 4.33641C9.16585 4.2203 9.028 4.1282 8.8763 4.06536C8.72459 4.00252 8.56199 3.97018 8.39779 3.97018C8.23358 3.97018 8.07099 4.00252 7.91928 4.06536C7.76758 4.1282 7.62973 4.2203 7.51362 4.33641L2.80029 9.05141Z" fill="white"/>
</g>
<defs>
<clipPath id="clip0_7_610">
<rect width="20" height="20" fill="white"/>
</clipPath>
</defs>
</svg>
