<svg width="271" height="48" viewBox="0 0 271 48" fill="none" xmlns="http://www.w3.org/2000/svg">
<g clip-path="url(#clip0_903_8463)">
<path d="M33.0557 18.4609C33.3755 18.4602 33.6903 18.543 33.9688 18.7002C34.2472 18.8575 34.4801 19.0842 34.6445 19.3584L39.6465 27.6924L42.8018 30.8447C43.147 31.1907 43.3407 31.6598 43.3408 32.1484V46.1533C43.3408 46.6429 43.1462 47.1128 42.7998 47.459C42.4535 47.805 41.9838 47.9999 41.4941 48H35.9521C35.4624 47.9999 34.9928 47.805 34.6465 47.459C34.3001 47.1128 34.1055 46.6429 34.1055 46.1533V44.3076H11.9395V46.1533C11.9395 46.6429 11.7448 47.1128 11.3984 47.459C11.0521 47.805 10.5825 48 10.0928 48H4.55176C4.06188 48 3.59152 47.8052 3.24512 47.459C2.89871 47.1128 2.7041 46.6429 2.7041 46.1533V32.1484C2.70423 31.6598 2.89789 31.1907 3.24316 30.8447L6.39844 27.6924L11.4043 19.3584C11.5683 19.0848 11.8005 18.8584 12.0781 18.7012C12.3559 18.5439 12.67 18.4609 12.9893 18.4609H33.0557ZM7.72461 33.4961C7.56396 33.4639 7.39826 33.4683 7.23926 33.5078C7.08014 33.5474 6.93155 33.6217 6.80469 33.7256C6.67784 33.8294 6.5751 33.9603 6.50488 34.1084C6.43482 34.2564 6.39851 34.4183 6.39844 34.582V37.6611C6.39844 37.9548 6.51495 38.2366 6.72266 38.4443C6.9305 38.6521 7.2129 38.7686 7.50684 38.7686H14.5254C14.8193 38.7686 15.1017 38.6521 15.3096 38.4443C15.5174 38.2366 15.6338 37.9549 15.6338 37.6611V36.2871C15.6336 35.9464 15.5157 35.6162 15.2998 35.3525C15.0837 35.0887 14.7827 34.9072 14.4482 34.8398L7.72461 33.4961ZM38.5254 33.5996C38.3131 33.5469 38.0914 33.5418 37.877 33.585L31.3018 34.8994C31.0507 34.9497 30.8244 35.0853 30.6621 35.2832C30.5 35.481 30.4114 35.7287 30.4111 35.9844V37.6611C30.4111 37.9548 30.5276 38.2366 30.7354 38.4443C30.9432 38.6521 31.2256 38.7686 31.5195 38.7686H38.5381C38.832 38.7686 39.1144 38.6521 39.3223 38.4443C39.53 38.2366 39.6465 37.9548 39.6465 37.6611V35.0322C39.6464 34.8136 39.5976 34.5979 39.5039 34.4004C39.4102 34.2028 39.2738 34.0281 39.1045 33.8896C38.9353 33.7513 38.7375 33.6523 38.5254 33.5996ZM94.4814 28.2334C94.4814 29.3376 94.6564 30.2389 95.0059 30.9375C95.3553 31.6361 95.8569 32.1488 96.5107 32.4756C97.1759 32.8024 97.9594 32.9658 98.8613 32.9658C99.7858 32.9658 100.569 32.8023 101.212 32.4756C101.866 32.1488 102.362 31.636 102.7 30.9375C103.05 30.2389 103.225 29.3375 103.225 28.2334V11.9736H108.28V28.2334C108.28 30.1262 107.875 31.7208 107.063 33.0166C106.263 34.3124 105.152 35.2869 103.731 35.9404C102.322 36.594 100.699 36.9209 98.8613 36.9209C97.0237 36.9209 95.3888 36.594 93.957 35.9404C92.5366 35.2869 91.4201 34.3124 90.6084 33.0166C89.8081 31.7208 89.4082 30.1263 89.4082 28.2334V11.9736H94.4814V28.2334ZM143.185 11.6357C144.74 11.6357 146.156 11.9117 147.43 12.4639C148.715 13.016 149.82 13.8164 150.744 14.8643C151.68 15.9121 152.401 17.1798 152.908 18.667C153.427 20.1431 153.687 21.8223 153.687 23.7041V24.8701C153.687 26.7406 153.433 28.4199 152.926 29.9072C152.418 31.3945 151.702 32.6621 150.777 33.71C149.853 34.7465 148.748 35.5407 147.463 36.0928C146.189 36.6448 144.774 36.9209 143.219 36.9209C141.674 36.9209 140.259 36.6449 138.974 36.0928C137.7 35.5406 136.595 34.7465 135.659 33.71C134.723 32.6621 133.996 31.3945 133.478 29.9072C132.97 28.4199 132.717 26.7406 132.717 24.8701V23.7041C132.717 21.8224 132.97 20.1431 133.478 18.667C133.985 17.1796 134.702 15.9122 135.626 14.8643C136.562 13.8164 137.667 13.016 138.94 12.4639C140.226 11.9118 141.64 11.6358 143.185 11.6357ZM166.184 11.6357C167.999 11.6357 169.583 11.9627 170.936 12.6162C172.288 13.2698 173.337 14.1656 174.081 15.3037C174.836 16.4417 175.214 17.7432 175.214 19.208H170.175C170.175 18.4869 170.022 17.8553 169.718 17.3145C169.425 16.7626 168.974 16.3291 168.365 16.0137C167.768 15.6982 167.012 15.54 166.099 15.54C165.219 15.5401 164.487 15.6759 163.9 15.9463C163.314 16.2054 162.875 16.5602 162.582 17.0107C162.289 17.4502 162.142 17.9459 162.142 18.498C162.142 18.915 162.243 19.2928 162.446 19.6309C162.66 19.9688 162.977 20.2843 163.394 20.5771C163.811 20.8701 164.324 21.1462 164.933 21.4053C165.541 21.6644 166.246 21.9182 167.046 22.166C168.387 22.5716 169.565 23.0281 170.58 23.5352C171.606 24.0422 172.464 24.6112 173.151 25.2422C173.839 25.8731 174.358 26.5888 174.707 27.3887C175.056 28.1885 175.231 29.0955 175.231 30.1094C175.231 31.1798 175.023 32.1383 174.605 32.9834C174.188 33.8284 173.585 34.544 172.796 35.1299C172.007 35.7158 171.065 36.1606 169.972 36.4648C168.878 36.7691 167.655 36.9209 166.302 36.9209C165.084 36.9209 163.884 36.7637 162.7 36.4482C161.516 36.1215 160.439 35.6311 159.47 34.9775C158.512 34.324 157.745 33.4897 157.17 32.4756C156.595 31.4616 156.308 30.2617 156.308 28.876H161.397C161.397 29.642 161.516 30.2898 161.753 30.8193C161.99 31.3489 162.323 31.7777 162.751 32.1045C163.191 32.4311 163.709 32.668 164.307 32.8145C164.915 32.9609 165.58 33.0342 166.302 33.0342C167.181 33.0342 167.903 32.91 168.467 32.6621C169.042 32.4142 169.465 32.0703 169.735 31.6309C170.017 31.1915 170.157 30.6956 170.157 30.1436C170.157 29.7041 170.09 29.3093 169.955 28.96C169.831 28.5995 169.594 28.2734 169.244 27.9805C168.895 27.6762 168.405 27.3769 167.773 27.084C167.142 26.791 166.325 26.4874 165.321 26.1719C164.205 25.8113 163.145 25.4048 162.142 24.9541C161.15 24.5034 160.27 23.9799 159.504 23.3828C158.749 22.7743 158.151 22.0696 157.711 21.2695C157.283 20.4697 157.068 19.5403 157.068 18.4814C157.068 17.4561 157.294 16.5262 157.745 15.6924C158.196 14.8475 158.827 14.1264 159.639 13.5293C160.45 12.9209 161.409 12.4527 162.514 12.126C163.63 11.7992 164.853 11.6357 166.184 11.6357ZM186.257 17.957C187.553 17.957 188.704 18.1714 189.707 18.5996C190.71 19.0278 191.55 19.6361 192.227 20.4248C192.914 21.2136 193.433 22.1604 193.782 23.2646C194.132 24.3575 194.307 25.5743 194.307 26.915V28.9434H182.623C182.672 29.3459 182.756 29.7291 182.875 30.0928C183.089 30.7123 183.387 31.2476 183.771 31.6982C184.165 32.1489 184.639 32.4982 185.191 32.7461C185.755 32.994 186.392 33.1182 187.103 33.1182C187.982 33.1181 188.799 32.9494 189.555 32.6113C190.321 32.262 190.981 31.7376 191.533 31.0391L193.9 33.6084C193.517 34.1605 192.993 34.6903 192.328 35.1973C191.674 35.7043 190.884 36.1215 189.96 36.4482C189.036 36.7636 187.981 36.9209 186.798 36.9209C185.378 36.9209 184.104 36.6957 182.977 36.2451C181.849 35.7831 180.891 35.1463 180.102 34.335C179.324 33.5237 178.726 32.5831 178.309 31.5127C177.891 30.431 177.683 29.2814 177.683 28.0645V27.3887C177.683 26.0028 177.881 24.7352 178.275 23.5859C178.67 22.4366 179.233 21.4388 179.966 20.5938C180.71 19.7486 181.612 19.1011 182.672 18.6504C183.732 18.1884 184.927 17.957 186.257 17.957ZM244.413 17.957C245.912 17.957 247.226 18.2447 248.354 18.8193C249.492 19.394 250.383 20.2167 251.025 21.2871C251.679 22.3462 252.012 23.6023 252.023 25.0557H247.44C247.429 24.4473 247.3 23.8951 247.052 23.3994C246.815 22.9037 246.465 22.5097 246.003 22.2168C245.552 21.9126 244.994 21.7598 244.329 21.7598C243.619 21.7598 243.038 21.9126 242.587 22.2168C242.136 22.5097 241.787 22.9154 241.539 23.4336C241.291 23.9405 241.116 24.5205 241.015 25.1738C240.924 25.816 240.879 26.4924 240.879 27.2021V27.6924C240.879 28.4023 240.924 29.0847 241.015 29.7383C241.105 30.3915 241.274 30.9716 241.521 31.4785C241.781 31.9855 242.136 32.3858 242.587 32.6787C243.038 32.9717 243.624 33.1181 244.346 33.1182C244.943 33.1182 245.473 33.0056 245.936 32.7803C246.398 32.5437 246.758 32.2167 247.018 31.7998C247.288 31.3717 247.429 30.8704 247.44 30.2959H252.023C252.012 31.5802 251.668 32.7238 250.992 33.7266C250.316 34.7181 249.408 35.5015 248.27 36.0762C247.131 36.6396 245.857 36.9209 244.447 36.9209C243.027 36.9209 241.786 36.6842 240.727 36.2109C239.678 35.7377 238.804 35.0847 238.105 34.251C237.406 33.4059 236.883 32.4251 236.533 31.3096C236.184 30.1828 236.009 28.9769 236.009 27.6924V27.2021C236.009 25.9066 236.184 24.7013 236.533 23.5859C236.883 22.4592 237.407 21.4783 238.105 20.6445C238.804 19.7995 239.678 19.1402 240.727 18.667C241.775 18.1938 243.004 17.9571 244.413 17.957ZM262.729 17.957C264.025 17.9571 265.174 18.1715 266.178 18.5996C267.181 19.0278 268.021 19.6361 268.697 20.4248C269.385 21.2136 269.903 22.1604 270.253 23.2646C270.602 24.3576 270.777 25.5743 270.777 26.915V28.9434H259.094C259.143 29.3459 259.227 29.7291 259.346 30.0928C259.56 30.7125 259.859 31.2475 260.242 31.6982C260.637 32.149 261.111 32.4982 261.663 32.7461C262.227 32.9939 262.863 33.1181 263.573 33.1182C264.452 33.1182 265.27 32.9493 266.025 32.6113C266.792 32.262 267.451 31.7377 268.004 31.0391L270.372 33.6084C269.989 34.1605 269.464 34.6902 268.799 35.1973C268.145 35.7043 267.356 36.1215 266.432 36.4482C265.507 36.7637 264.453 36.9209 263.27 36.9209C261.849 36.9209 260.575 36.6958 259.447 36.2451C258.32 35.7831 257.361 35.1462 256.572 34.335C255.795 33.5238 255.197 32.583 254.78 31.5127C254.363 30.431 254.154 29.2814 254.154 28.0645V27.3887C254.154 26.0029 254.352 24.7352 254.746 23.5859C255.141 22.4366 255.705 21.4389 256.438 20.5938C257.181 19.7489 258.083 19.1011 259.143 18.6504C260.202 18.1884 261.398 17.957 262.729 17.957ZM87.6494 36.583H82.2383L80.5303 31.3945H71.6807L69.9775 36.583H64.583L73.7314 11.9736H78.4502L87.6494 36.583ZM131.043 15.9463H123.467V36.583H118.41V15.9463H110.952V11.9736H131.043V15.9463ZM205.941 17.957C206.212 17.957 206.488 17.9794 206.77 18.0244C207.051 18.0582 207.283 18.1092 207.463 18.1768L207.379 22.6895C207.142 22.6557 206.855 22.628 206.517 22.6055C206.19 22.5717 205.891 22.5547 205.62 22.5547C204.932 22.5547 204.334 22.6449 203.827 22.8252C203.331 22.9942 202.914 23.248 202.576 23.5859C202.318 23.8528 202.11 24.1653 201.95 24.5234V36.583H197.08V18.2949H201.663L201.824 20.5361C201.871 20.4526 201.918 20.3705 201.967 20.29C202.429 19.5464 202.993 18.9711 203.658 18.5654C204.323 18.1598 205.085 17.957 205.941 17.957ZM216.93 30.7119L220.35 18.2949H225.439L219.267 36.583H214.565L208.394 18.2949H213.5L216.93 30.7119ZM232.762 36.583H227.875V18.2949H232.762V36.583ZM143.185 15.6758C142.328 15.6758 141.566 15.8499 140.901 16.1992C140.248 16.5373 139.69 17.0447 139.228 17.7207C138.777 18.3967 138.433 19.2303 138.196 20.2217C137.96 21.2132 137.841 22.3629 137.841 23.6699V24.8701C137.841 26.1659 137.96 27.3155 138.196 28.3184C138.433 29.3098 138.782 30.1496 139.244 30.8369C139.706 31.5129 140.27 32.0257 140.936 32.375C141.601 32.7243 142.362 32.8984 143.219 32.8984C144.076 32.8984 144.837 32.7243 145.502 32.375C146.167 32.0257 146.725 31.5128 147.176 30.8369C147.627 30.1496 147.97 29.3098 148.207 28.3184C148.444 27.3155 148.562 26.1659 148.562 24.8701V23.6699C148.562 22.3629 148.444 21.2132 148.207 20.2217C147.97 19.2304 147.621 18.3966 147.159 17.7207C146.697 17.0446 146.133 16.5373 145.468 16.1992C144.803 15.8499 144.041 15.6758 143.185 15.6758ZM9.59766 29.5381H36.4473L32.0146 22.1533H14.0303L9.59766 29.5381ZM72.9844 27.4219H79.2236L76.0996 17.9307L72.9844 27.4219ZM262.678 21.7598C262.035 21.7598 261.483 21.9011 261.021 22.1826C260.558 22.4643 260.18 22.8591 259.887 23.3662C259.605 23.8731 259.391 24.4701 259.244 25.1572C259.209 25.333 259.178 25.5134 259.152 25.6982H265.992V25.3262C265.992 24.6502 265.868 24.0471 265.62 23.5176C265.383 22.9768 265.022 22.5489 264.537 22.2334C264.052 21.9181 263.433 21.7598 262.678 21.7598ZM186.206 21.7598C185.563 21.7598 185.011 21.9009 184.549 22.1826C184.087 22.4643 183.709 22.8592 183.416 23.3662C183.134 23.8732 182.92 24.4701 182.773 25.1572C182.738 25.3329 182.708 25.5134 182.682 25.6982H189.521V25.3262C189.52 24.6502 189.396 24.0471 189.148 23.5176C188.912 22.9769 188.551 22.5488 188.066 22.2334C187.582 21.9179 186.961 21.7598 186.206 21.7598ZM230.31 11.0781C231.133 11.0781 231.792 11.3095 232.288 11.7715C232.795 12.2335 233.05 12.8194 233.05 13.5293C233.05 14.239 232.795 14.8252 232.288 15.2871C231.792 15.7488 231.132 15.9795 230.31 15.9795C229.476 15.9794 228.81 15.7489 228.314 15.2871C227.819 14.8252 227.57 14.239 227.57 13.5293C227.57 12.8195 227.819 12.2334 228.314 11.7715C228.81 11.3095 229.475 11.0782 230.31 11.0781ZM6.39844 0C7.69532 4.49222e-07 8.96962 0.341185 10.0928 0.989258C11.2158 1.63733 12.1484 2.56993 12.7969 3.69238H39.6465C40.6262 3.69238 41.566 4.08102 42.2588 4.77344C42.9515 5.46576 43.3407 6.40471 43.3408 7.38379C43.3408 8.36305 42.9516 9.30268 42.2588 9.99512C41.566 10.6875 40.6262 11.0762 39.6465 11.0762H12.7969C12.1485 12.1987 11.2158 13.1312 10.0928 13.7793C8.96962 14.4274 7.69536 14.7685 6.39844 14.7686C5.10152 14.7685 3.82726 14.4274 2.7041 13.7793C1.58104 13.1312 0.648417 12.1987 0 11.0762H6.39844V3.69238H0C0.648465 2.56993 1.58103 1.63733 2.7041 0.989258C3.82726 0.341184 5.10155 0 6.39844 0Z" fill="white"/>
</g>
<defs>
<clipPath id="clip0_903_8463">
<rect width="271" height="48" fill="white"/>
</clipPath>
</defs>
</svg>
